
<svg xmlns="http://www.w3.org/2000/svg" xmlns:xlink="http://www.w3.org/1999/xlink" width="21px" height="18px" viewBox="0 0 20 18" version="1.1">
<g id="surface1">
<path id="Path_1" style=" stroke:none;fill-rule:nonzero;fill:rgb(14.509804%,59.607843%,59.607843%);fill-opacity:1;" d="M 20.058594 12.828125 C 20.054688 12.050781 19.585938 11.355469 18.882812 11.097656 L 18.882812 4.722656 L 20.058594 4.214844 L 10.027344 0 L 0 4.214844 L 10.027344 8.429688 L 17.707031 5.214844 L 17.707031 11.097656 C 17.035156 11.34375 16.570312 11.988281 16.535156 12.734375 C 16.496094 13.480469 16.894531 14.171875 17.539062 14.492188 L 16.5625 17.558594 L 17.675781 17.949219 L 18.296875 16.007812 L 18.914062 17.949219 L 20.027344 17.558594 L 19.050781 14.492188 C 19.664062 14.1875 20.054688 13.539062 20.058594 12.828125 Z M 20.058594 12.828125 "/>
<path style=" stroke:none;fill-rule:nonzero;fill:rgb(14.509804%,59.607843%,59.607843%);fill-opacity:1;" d="M 10.027344 9.753906 L 4.742188 7.53125 L 4.742188 9.136719 C 4.742188 10.890625 7.015625 12.214844 10.027344 12.214844 C 13.042969 12.214844 15.316406 10.890625 15.316406 9.136719 L 15.316406 7.53125 Z M 10.027344 9.753906 "/>
</g>
</svg>
